<svg width="154" height="46" viewBox="0 0 154 46" fill="none" xmlns="http://www.w3.org/2000/svg">
<mask id="path-1-outside-1_220_2526" maskUnits="userSpaceOnUse" x="0" y="0" width="154" height="46" fill="black">
<rect fill="white" width="154" height="46"/>
<path d="M20.46 44.54C16.54 44.54 13.16 43.84 10.32 42.44C7.52 41.04 5.36 38.98 3.84 36.26C2.32 33.54 1.56 30.2 1.56 26.24C1.56 22.52 2.06 19.14 3.06 16.1C4.1 13.02 5.58 10.38 7.5 8.18C9.42 5.94 11.74 4.22 14.46 3.02C17.18 1.78 20.28 1.16 23.76 1.16C26.32 1.16 28.72 1.52 30.96 2.24C33.2 2.92 35.08 3.94 36.6 5.3C37.12 5.7 37.44 6.16 37.56 6.68C37.72 7.2 37.72 7.68 37.56 8.12C37.44 8.56 37.22 8.94 36.9 9.26C36.58 9.58 36.18 9.76 35.7 9.8C35.22 9.84 34.7 9.64 34.14 9.2C32.74 7.96 31.14 7.06 29.34 6.5C27.54 5.9 25.58 5.6 23.46 5.6C19.98 5.6 17 6.46 14.52 8.18C12.04 9.9 10.12 12.3 8.76 15.38C7.44 18.46 6.78 22.04 6.78 26.12C6.78 30.88 7.98 34.42 10.38 36.74C12.82 39.02 16.36 40.16 21 40.16C22.96 40.16 24.76 39.98 26.4 39.62C28.08 39.26 29.66 38.8 31.14 38.24L29.64 40.82L32.04 25.88H23.46C22.74 25.88 22.18 25.74 21.78 25.46C21.38 25.14 21.18 24.72 21.18 24.2C21.18 23.48 21.4 22.94 21.84 22.58C22.32 22.18 22.92 21.98 23.64 21.98H34.44C35.2 21.98 35.78 22.2 36.18 22.64C36.58 23.08 36.7 23.7 36.54 24.5L34.08 40.16C34 40.8 33.82 41.32 33.54 41.72C33.26 42.08 32.84 42.36 32.28 42.56C30.72 43.16 28.88 43.64 26.76 44C24.64 44.36 22.54 44.54 20.46 44.54ZM55.8352 44.54C53.2352 44.54 50.9752 44.02 49.0552 42.98C47.1752 41.94 45.7152 40.46 44.6752 38.54C43.6752 36.62 43.1752 34.34 43.1752 31.7C43.1752 29.22 43.5352 26.94 44.2552 24.86C45.0152 22.74 46.0752 20.88 47.4352 19.28C48.7952 17.68 50.3952 16.46 52.2352 15.62C54.1152 14.74 56.2352 14.3 58.5952 14.3C61.1952 14.3 63.4352 14.82 65.3152 15.86C67.2352 16.9 68.6952 18.38 69.6952 20.3C70.6952 22.18 71.1952 24.46 71.1952 27.14C71.1952 29.62 70.8352 31.92 70.1152 34.04C69.3952 36.12 68.3552 37.96 66.9952 39.56C65.6352 41.12 64.0152 42.34 62.1352 43.22C60.2552 44.1 58.1552 44.54 55.8352 44.54ZM56.0152 40.64C58.2152 40.64 60.0752 40.02 61.5952 38.78C63.1552 37.54 64.3152 35.88 65.0752 33.8C65.8752 31.72 66.2752 29.44 66.2752 26.96C66.2752 24.08 65.5752 21.9 64.1752 20.42C62.8152 18.94 60.8952 18.2 58.4152 18.2C56.2152 18.2 54.3352 18.82 52.7752 20.06C51.2552 21.3 50.0952 22.94 49.2952 24.98C48.4952 27.02 48.0952 29.32 48.0952 31.88C48.0952 34.72 48.7952 36.9 50.1952 38.42C51.5952 39.9 53.5352 40.64 56.0152 40.64ZM79.515 44.42C78.595 44.42 77.935 44.16 77.535 43.64C77.175 43.12 77.055 42.4 77.175 41.48L83.115 4.16C83.235 3.32 83.535 2.7 84.015 2.3C84.535 1.9 85.195 1.7 85.995 1.7H107.295C108.015 1.7 108.555 1.84 108.915 2.12C109.315 2.4 109.515 2.82 109.515 3.38C109.515 4.14 109.295 4.74 108.855 5.18C108.455 5.62 107.855 5.84 107.055 5.84H87.855L85.455 20.6H103.095C103.815 20.6 104.355 20.74 104.715 21.02C105.115 21.3 105.315 21.72 105.315 22.28C105.315 23.04 105.095 23.64 104.655 24.08C104.215 24.52 103.615 24.74 102.855 24.74H84.855L82.095 41.9C81.815 43.58 80.955 44.42 79.515 44.42ZM112.419 44.42C111.659 44.42 111.099 44.18 110.739 43.7C110.419 43.18 110.319 42.46 110.439 41.54L114.399 16.82C114.519 16.02 114.799 15.42 115.239 15.02C115.719 14.62 116.359 14.42 117.159 14.42C117.919 14.42 118.479 14.66 118.839 15.14C119.199 15.62 119.299 16.32 119.139 17.24L115.239 42.02C115.119 42.82 114.819 43.42 114.339 43.82C113.899 44.22 113.259 44.42 112.419 44.42ZM118.359 7.82C117.399 7.82 116.679 7.58 116.199 7.1C115.719 6.62 115.519 5.96 115.599 5.12C115.639 4.08 115.979 3.28 116.619 2.72C117.299 2.16 118.179 1.88 119.259 1.88C120.219 1.88 120.939 2.12 121.419 2.6C121.899 3.04 122.099 3.7 122.019 4.58C121.939 5.62 121.579 6.42 120.939 6.98C120.299 7.54 119.439 7.82 118.359 7.82ZM124.505 44.42C123.825 44.42 123.305 44.26 122.945 43.94C122.585 43.58 122.405 43.14 122.405 42.62C122.405 42.1 122.625 41.62 123.065 41.18L135.725 27.92L135.665 30.2L127.745 17.9C127.345 17.22 127.165 16.62 127.205 16.1C127.285 15.58 127.525 15.18 127.925 14.9C128.325 14.58 128.785 14.42 129.305 14.42C129.825 14.42 130.285 14.54 130.685 14.78C131.125 15.02 131.525 15.42 131.885 15.98L138.665 26.66H137.345L147.425 15.74C147.865 15.26 148.265 14.92 148.625 14.72C148.985 14.52 149.465 14.42 150.065 14.42C150.745 14.42 151.265 14.6 151.625 14.96C151.985 15.28 152.145 15.68 152.105 16.16C152.105 16.64 151.905 17.12 151.505 17.6L139.745 30.08L139.685 27.86L148.145 40.88C148.625 41.52 148.805 42.12 148.685 42.68C148.605 43.2 148.365 43.62 147.965 43.94C147.565 44.26 147.105 44.42 146.585 44.42C146.065 44.42 145.585 44.28 145.145 44C144.705 43.72 144.325 43.34 144.005 42.86L136.685 31.34L138.185 31.46L127.085 43.1C126.645 43.54 126.245 43.86 125.885 44.06C125.525 44.3 125.065 44.42 124.505 44.42Z"/>
</mask>
<path d="M20.46 44.54C16.54 44.54 13.16 43.84 10.32 42.44C7.52 41.04 5.36 38.98 3.84 36.26C2.32 33.54 1.56 30.2 1.56 26.24C1.56 22.52 2.06 19.14 3.06 16.1C4.1 13.02 5.58 10.38 7.5 8.18C9.42 5.94 11.74 4.22 14.46 3.02C17.18 1.78 20.28 1.16 23.76 1.16C26.32 1.16 28.72 1.52 30.96 2.24C33.2 2.92 35.08 3.94 36.6 5.3C37.12 5.7 37.44 6.16 37.56 6.68C37.72 7.2 37.72 7.68 37.56 8.12C37.44 8.56 37.22 8.94 36.9 9.26C36.58 9.58 36.18 9.76 35.7 9.8C35.22 9.84 34.7 9.64 34.14 9.2C32.74 7.96 31.14 7.06 29.34 6.5C27.54 5.9 25.58 5.6 23.46 5.6C19.98 5.6 17 6.46 14.52 8.18C12.04 9.9 10.12 12.3 8.76 15.38C7.44 18.46 6.78 22.04 6.78 26.12C6.78 30.88 7.98 34.42 10.38 36.74C12.82 39.02 16.36 40.16 21 40.16C22.96 40.16 24.76 39.98 26.4 39.62C28.08 39.26 29.66 38.8 31.14 38.24L29.64 40.82L32.04 25.88H23.46C22.74 25.88 22.18 25.74 21.78 25.46C21.38 25.14 21.18 24.72 21.18 24.2C21.18 23.48 21.4 22.94 21.84 22.58C22.32 22.18 22.92 21.98 23.64 21.98H34.44C35.2 21.98 35.78 22.2 36.18 22.64C36.58 23.08 36.7 23.7 36.54 24.5L34.08 40.16C34 40.8 33.82 41.32 33.54 41.72C33.26 42.08 32.84 42.36 32.28 42.56C30.72 43.16 28.88 43.64 26.76 44C24.64 44.36 22.54 44.54 20.46 44.54ZM55.8352 44.54C53.2352 44.54 50.9752 44.02 49.0552 42.98C47.1752 41.94 45.7152 40.46 44.6752 38.54C43.6752 36.62 43.1752 34.34 43.1752 31.7C43.1752 29.22 43.5352 26.94 44.2552 24.86C45.0152 22.74 46.0752 20.88 47.4352 19.28C48.7952 17.68 50.3952 16.46 52.2352 15.62C54.1152 14.74 56.2352 14.3 58.5952 14.3C61.1952 14.3 63.4352 14.82 65.3152 15.86C67.2352 16.9 68.6952 18.38 69.6952 20.3C70.6952 22.18 71.1952 24.46 71.1952 27.14C71.1952 29.62 70.8352 31.92 70.1152 34.04C69.3952 36.12 68.3552 37.96 66.9952 39.56C65.6352 41.12 64.0152 42.34 62.1352 43.22C60.2552 44.1 58.1552 44.54 55.8352 44.54ZM56.0152 40.64C58.2152 40.64 60.0752 40.02 61.5952 38.78C63.1552 37.54 64.3152 35.88 65.0752 33.8C65.8752 31.72 66.2752 29.44 66.2752 26.96C66.2752 24.08 65.5752 21.9 64.1752 20.42C62.8152 18.94 60.8952 18.2 58.4152 18.2C56.2152 18.2 54.3352 18.82 52.7752 20.06C51.2552 21.3 50.0952 22.94 49.2952 24.98C48.4952 27.02 48.0952 29.32 48.0952 31.88C48.0952 34.72 48.7952 36.9 50.1952 38.42C51.5952 39.9 53.5352 40.64 56.0152 40.64ZM79.515 44.42C78.595 44.42 77.935 44.16 77.535 43.64C77.175 43.12 77.055 42.4 77.175 41.48L83.115 4.16C83.235 3.32 83.535 2.7 84.015 2.3C84.535 1.9 85.195 1.7 85.995 1.7H107.295C108.015 1.7 108.555 1.84 108.915 2.12C109.315 2.4 109.515 2.82 109.515 3.38C109.515 4.14 109.295 4.74 108.855 5.18C108.455 5.62 107.855 5.84 107.055 5.84H87.855L85.455 20.6H103.095C103.815 20.6 104.355 20.74 104.715 21.02C105.115 21.3 105.315 21.72 105.315 22.28C105.315 23.04 105.095 23.64 104.655 24.08C104.215 24.52 103.615 24.74 102.855 24.74H84.855L82.095 41.9C81.815 43.58 80.955 44.42 79.515 44.42ZM112.419 44.42C111.659 44.42 111.099 44.18 110.739 43.7C110.419 43.18 110.319 42.46 110.439 41.54L114.399 16.82C114.519 16.02 114.799 15.42 115.239 15.02C115.719 14.62 116.359 14.42 117.159 14.42C117.919 14.42 118.479 14.66 118.839 15.14C119.199 15.62 119.299 16.32 119.139 17.24L115.239 42.02C115.119 42.82 114.819 43.42 114.339 43.82C113.899 44.22 113.259 44.42 112.419 44.42ZM118.359 7.82C117.399 7.82 116.679 7.58 116.199 7.1C115.719 6.62 115.519 5.96 115.599 5.12C115.639 4.08 115.979 3.28 116.619 2.72C117.299 2.16 118.179 1.88 119.259 1.88C120.219 1.88 120.939 2.12 121.419 2.6C121.899 3.04 122.099 3.7 122.019 4.58C121.939 5.62 121.579 6.42 120.939 6.98C120.299 7.54 119.439 7.82 118.359 7.82ZM124.505 44.42C123.825 44.42 123.305 44.26 122.945 43.94C122.585 43.58 122.405 43.14 122.405 42.62C122.405 42.1 122.625 41.62 123.065 41.18L135.725 27.92L135.665 30.2L127.745 17.9C127.345 17.22 127.165 16.62 127.205 16.1C127.285 15.58 127.525 15.18 127.925 14.9C128.325 14.58 128.785 14.42 129.305 14.42C129.825 14.42 130.285 14.54 130.685 14.78C131.125 15.02 131.525 15.42 131.885 15.98L138.665 26.66H137.345L147.425 15.74C147.865 15.26 148.265 14.92 148.625 14.72C148.985 14.52 149.465 14.42 150.065 14.42C150.745 14.42 151.265 14.6 151.625 14.96C151.985 15.28 152.145 15.68 152.105 16.16C152.105 16.64 151.905 17.12 151.505 17.6L139.745 30.08L139.685 27.86L148.145 40.88C148.625 41.52 148.805 42.12 148.685 42.68C148.605 43.2 148.365 43.62 147.965 43.94C147.565 44.26 147.105 44.42 146.585 44.42C146.065 44.42 145.585 44.28 145.145 44C144.705 43.72 144.325 43.34 144.005 42.86L136.685 31.34L138.185 31.46L127.085 43.1C126.645 43.54 126.245 43.86 125.885 44.06C125.525 44.3 125.065 44.42 124.505 44.42Z" fill="#375D84"/>
<path d="M10.32 42.44L9.87278 43.3344L9.87785 43.3369L10.32 42.44ZM3.06 16.1L2.11253 15.7801L2.11007 15.7875L3.06 16.1ZM7.5 8.18L8.25346 8.83756L8.25926 8.83079L7.5 8.18ZM14.46 3.02L14.8637 3.93498L14.8748 3.92991L14.46 3.02ZM30.96 2.24L30.654 3.19203L30.6617 3.19452L30.6695 3.19688L30.96 2.24ZM36.6 5.3L35.9332 6.04524L35.9609 6.06999L35.9903 6.09262L36.6 5.3ZM37.56 6.68L36.5856 6.90486L36.5937 6.9398L36.6042 6.97408L37.56 6.68ZM37.56 8.12L36.6202 7.77826L36.6061 7.81705L36.5952 7.85688L37.56 8.12ZM36.9 9.26L36.1929 8.55289L36.1929 8.55289L36.9 9.26ZM35.7 9.8L35.617 8.80345H35.617L35.7 9.8ZM34.14 9.2L33.477 9.94859L33.499 9.96812L33.5222 9.98631L34.14 9.2ZM29.34 6.5L29.0238 7.44868L29.0333 7.45187L29.0429 7.45486L29.34 6.5ZM14.52 8.18L15.0899 9.00171L14.52 8.18ZM8.76 15.38L7.84516 14.976L7.84086 14.9861L8.76 15.38ZM10.38 36.74L9.68498 37.459L9.69107 37.4649L9.69726 37.4707L10.38 36.74ZM26.4 39.62L26.1905 38.6422L26.1856 38.6433L26.4 39.62ZM31.14 38.24L32.0045 38.7426L33.4199 36.3081L30.7861 37.3047L31.14 38.24ZM29.64 40.82L28.6527 40.6614L30.5045 41.3226L29.64 40.82ZM32.04 25.88L33.0273 26.0386L33.2135 24.88H32.04V25.88ZM21.78 25.46L21.1553 26.2409L21.1803 26.2609L21.2065 26.2792L21.78 25.46ZM21.84 22.58L22.4733 23.354L22.4802 23.3482L21.84 22.58ZM36.18 22.64L36.9199 21.9673H36.9199L36.18 22.64ZM36.54 24.5L35.5594 24.3039L35.5553 24.3243L35.5521 24.3448L36.54 24.5ZM34.08 40.16L33.0921 40.0048L33.0897 40.0204L33.0877 40.036L34.08 40.16ZM33.54 41.72L34.3294 42.3339L34.3448 42.3141L34.3592 42.2935L33.54 41.72ZM32.28 42.56L31.9437 41.6183L31.9323 41.6223L31.921 41.6267L32.28 42.56ZM20.46 44.54V43.54C16.6576 43.54 13.4358 42.8611 10.7622 41.5431L10.32 42.44L9.87785 43.3369C12.8842 44.8189 16.4224 45.54 20.46 45.54V44.54ZM10.32 42.44L10.7672 41.5456C8.14581 40.2349 6.13456 38.3161 4.71294 35.7722L3.84 36.26L2.96706 36.7478C4.58544 39.6439 6.89419 41.8451 9.87279 43.3344L10.32 42.44ZM3.84 36.26L4.71294 35.7722C3.29589 33.2364 2.56 30.0746 2.56 26.24H1.56H0.56C0.56 30.3254 1.34411 33.8436 2.96706 36.7478L3.84 36.26ZM1.56 26.24H2.56C2.56 22.6093 3.04798 19.3368 4.00993 16.4125L3.06 16.1L2.11007 15.7875C1.07202 18.9432 0.56 22.4307 0.56 26.24H1.56ZM3.06 16.1L4.00745 16.4199C5.01027 13.45 6.42885 10.9282 8.25342 8.83753L7.5 8.18L6.74658 7.52246C4.73115 9.83181 3.18973 12.59 2.11255 15.7801L3.06 16.1ZM7.5 8.18L8.25926 8.83079C10.0812 6.70521 12.2793 5.07505 14.8636 3.93492L14.46 3.02L14.0564 2.10508C11.2007 3.36495 8.75882 5.17479 6.74074 7.52921L7.5 8.18ZM14.46 3.02L14.8748 3.92991C17.4449 2.75824 20.3998 2.16 23.76 2.16V1.16V0.159998C20.1602 0.159998 16.9151 0.801752 14.0452 2.11009L14.46 3.02ZM23.76 1.16V2.16C26.2252 2.16 28.5212 2.50648 30.654 3.19203L30.96 2.24L31.266 1.28797C28.9188 0.53351 26.4148 0.159998 23.76 0.159998V1.16ZM30.96 2.24L30.6695 3.19688C32.7907 3.84081 34.5367 4.79572 35.9332 6.04524L36.6 5.3L37.2668 4.55476C35.6233 3.08428 33.6093 1.99918 31.2505 1.28312L30.96 2.24ZM36.6 5.3L35.9903 6.09262C36.3701 6.38479 36.5289 6.65888 36.5856 6.90486L37.56 6.68L38.5344 6.45514C38.3512 5.66111 37.8699 5.0152 37.2097 4.50737L36.6 5.3ZM37.56 6.68L36.6042 6.97408C36.711 7.3211 36.6942 7.57479 36.6202 7.77826L37.56 8.12L38.4998 8.46174C38.7458 7.78521 38.729 7.0789 38.5158 6.38592L37.56 6.68ZM37.56 8.12L36.5952 7.85688C36.5207 8.13036 36.3888 8.35695 36.1929 8.55289L36.9 9.26L37.6071 9.96711C38.0512 9.52305 38.3594 8.98964 38.5248 8.38312L37.56 8.12ZM36.9 9.26L36.1929 8.55289C36.0514 8.69436 35.8777 8.78173 35.617 8.80345L35.7 9.8L35.783 10.7965C36.4823 10.7383 37.1086 10.4656 37.6071 9.9671L36.9 9.26ZM35.7 9.8L35.617 8.80345C35.4864 8.81433 35.2126 8.77103 34.7578 8.41368L34.14 9.2L33.5222 9.98631C34.1874 10.509 34.9536 10.8657 35.7831 10.7965L35.7 9.8ZM34.14 9.2L34.803 8.45141C33.2962 7.11675 31.5712 6.14686 29.6371 5.54514L29.34 6.5L29.0429 7.45486C30.7088 7.97313 32.1838 8.80325 33.477 9.94859L34.14 9.2ZM29.34 6.5L29.6562 5.55132C27.7431 4.91359 25.675 4.6 23.46 4.6V5.6V6.6C25.485 6.6 27.3369 6.88641 29.0238 7.44868L29.34 6.5ZM23.46 5.6V4.6C19.8085 4.6 16.6221 5.50513 13.9501 7.35829L14.52 8.18L15.0899 9.00171C17.3779 7.41487 20.1515 6.6 23.46 6.6V5.6ZM14.52 8.18L13.9501 7.35828C11.3019 9.19496 9.27071 11.7477 7.84521 14.9761L8.76 15.38L9.67479 15.7839C10.9693 12.8523 12.7781 10.605 15.0899 9.00171L14.52 8.18ZM8.76 15.38L7.84086 14.9861C6.45724 18.2145 5.78 21.9333 5.78 26.12H6.78H7.78C7.78 22.1467 8.42276 18.7055 9.67915 15.7739L8.76 15.38ZM6.78 26.12H5.78C5.78 31.0341 7.0195 34.8824 9.68498 37.459L10.38 36.74L11.075 36.021C8.9405 33.9576 7.78 30.7259 7.78 26.12H6.78ZM10.38 36.74L9.69726 37.4707C12.3842 39.9814 16.206 41.16 21 41.16V40.16V39.16C16.514 39.16 13.2558 38.0586 11.0627 36.0093L10.38 36.74ZM21 40.16V41.16C23.0204 41.16 24.8934 40.9745 26.6144 40.5967L26.4 39.62L26.1856 38.6433C24.6266 38.9855 22.8996 39.16 21 39.16V40.16ZM26.4 39.62L26.6095 40.5978C28.3345 40.2282 29.9631 39.7545 31.4939 39.1753L31.14 38.24L30.7861 37.3047C29.3569 37.8455 27.8255 38.2918 26.1905 38.6422L26.4 39.62ZM31.14 38.24L30.2755 37.7374L28.7755 40.3174L29.64 40.82L30.5045 41.3226L32.0045 38.7426L31.14 38.24ZM29.64 40.82L30.6273 40.9786L33.0273 26.0386L32.04 25.88L31.0527 25.7214L28.6527 40.6614L29.64 40.82ZM32.04 25.88V24.88H23.46V25.88V26.88H32.04V25.88ZM23.46 25.88V24.88C22.8527 24.88 22.5229 24.7594 22.3535 24.6408L21.78 25.46L21.2065 26.2792C21.8371 26.7206 22.6273 26.88 23.46 26.88V25.88ZM21.78 25.46L22.4047 24.6791C22.2461 24.5522 22.18 24.4216 22.18 24.2H21.18H20.18C20.18 25.0184 20.5139 25.7278 21.1553 26.2409L21.78 25.46ZM21.18 24.2H22.18C22.18 23.693 22.3252 23.4751 22.4732 23.354L21.84 22.58L21.2068 21.806C20.4748 22.4049 20.18 23.267 20.18 24.2H21.18ZM21.84 22.58L22.4802 23.3482C22.7536 23.1204 23.1163 22.98 23.64 22.98V21.98V20.98C22.7237 20.98 21.8864 21.2396 21.1998 21.8118L21.84 22.58ZM23.64 21.98V22.98H34.44V21.98V20.98H23.64V21.98ZM34.44 21.98V22.98C35.0017 22.98 35.2792 23.1358 35.4401 23.3127L36.18 22.64L36.9199 21.9673C36.2808 21.2642 35.3983 20.98 34.44 20.98V21.98ZM36.18 22.64L35.4401 23.3127C35.5533 23.4373 35.6821 23.6906 35.5594 24.3039L36.54 24.5L37.5206 24.6961C37.7179 23.7094 37.6067 22.7227 36.9199 21.9673L36.18 22.64ZM36.54 24.5L35.5521 24.3448L33.0921 40.0048L34.08 40.16L35.0679 40.3152L37.5279 24.6552L36.54 24.5ZM34.08 40.16L33.0877 40.036C33.0217 40.5643 32.8822 40.9159 32.7208 41.1465L33.54 41.72L34.3592 42.2935C34.7578 41.7241 34.9783 41.0357 35.0723 40.284L34.08 40.16ZM33.54 41.72L32.7506 41.1061C32.618 41.2766 32.3781 41.4631 31.9437 41.6183L32.28 42.56L32.6163 43.5017C33.3019 43.2569 33.902 42.8834 34.3294 42.3339L33.54 41.72ZM32.28 42.56L31.921 41.6267C30.4376 42.1972 28.6647 42.6622 26.5926 43.0141L26.76 44L26.9274 44.9859C29.0953 44.6178 31.0024 44.1228 32.639 43.4933L32.28 42.56ZM26.76 44L26.5926 43.0141C24.526 43.365 22.482 43.54 20.46 43.54V44.54V45.54C22.598 45.54 24.754 45.355 26.9274 44.9859L26.76 44ZM49.0552 42.98L48.5711 43.8551L48.5789 43.8593L49.0552 42.98ZM44.6752 38.54L43.7882 39.0019L43.792 39.0091L43.7959 39.0163L44.6752 38.54ZM44.2552 24.86L43.3138 24.5225L43.3102 24.5329L44.2552 24.86ZM47.4352 19.28L46.6732 18.6324L47.4352 19.28ZM52.2352 15.62L52.6505 16.5297L52.6591 16.5257L52.2352 15.62ZM65.3152 15.86L64.8311 16.7351L64.8389 16.7393L65.3152 15.86ZM69.6952 20.3L68.8082 20.762L68.8123 20.7696L69.6952 20.3ZM70.1152 34.04L71.0602 34.3671L71.062 34.3616L70.1152 34.04ZM66.9952 39.56L67.749 40.2172L67.7571 40.2076L66.9952 39.56ZM62.1352 43.22L61.7112 42.3143L62.1352 43.22ZM61.5952 38.78L60.9729 37.9971L60.963 38.0051L61.5952 38.78ZM65.0752 33.8L64.1418 33.441L64.1388 33.4489L64.1359 33.4568L65.0752 33.8ZM64.1752 20.42L63.4388 21.0966L63.4437 21.1019L63.4487 21.1072L64.1752 20.42ZM52.7752 20.06L52.1529 19.2771L52.143 19.2851L52.7752 20.06ZM49.2952 24.98L50.2261 25.3451L49.2952 24.98ZM50.1952 38.42L49.4595 39.0975L49.4687 39.1072L50.1952 38.42ZM55.8352 44.54V43.54C53.3698 43.54 51.2797 43.0477 49.5314 42.1007L49.0552 42.98L48.5789 43.8593C50.6706 44.9923 53.1005 45.54 55.8352 45.54V44.54ZM49.0552 42.98L49.5392 42.105C47.8292 41.159 46.5051 39.8187 45.5544 38.0637L44.6752 38.54L43.7959 39.0163C44.9253 41.1013 46.5211 42.721 48.5711 43.855L49.0552 42.98ZM44.6752 38.54L45.5621 38.0781C44.651 36.3287 44.1752 34.214 44.1752 31.7H43.1752H42.1752C42.1752 34.466 42.6994 36.9113 43.7882 39.0019L44.6752 38.54ZM43.1752 31.7H44.1752C44.1752 29.3174 44.5209 27.1495 45.2001 25.1871L44.2552 24.86L43.3102 24.5329C42.5494 26.7305 42.1752 29.1226 42.1752 31.7H43.1752ZM44.2552 24.86L45.1965 25.1975C45.9188 23.1825 46.9206 21.4294 48.1971 19.9276L47.4352 19.28L46.6732 18.6324C45.2297 20.3306 44.1115 22.2975 43.3138 24.5225L44.2552 24.86ZM47.4352 19.28L48.1971 19.9276C49.4659 18.435 50.9489 17.3065 52.6504 16.5297L52.2352 15.62L51.8199 14.7103C49.8414 15.6135 48.1244 16.925 46.6732 18.6324L47.4352 19.28ZM52.2352 15.62L52.6591 16.5257C54.3893 15.7158 56.3616 15.3 58.5952 15.3V14.3V13.3C56.1087 13.3 53.841 13.7642 51.8112 14.7143L52.2352 15.62ZM58.5952 14.3V15.3C61.0612 15.3 63.1274 15.7926 64.8311 16.735L65.3152 15.86L65.7992 14.985C63.7429 13.8474 61.3291 13.3 58.5952 13.3V14.3ZM65.3152 15.86L64.8389 16.7393C66.585 17.6851 67.9013 19.0205 68.8082 20.7619L69.6952 20.3L70.5821 19.8381C69.4891 17.7395 67.8853 16.1149 65.7914 14.9807L65.3152 15.86ZM69.6952 20.3L68.8123 20.7696C69.718 22.4724 70.1952 24.5823 70.1952 27.14H71.1952H72.1952C72.1952 24.3377 71.6723 21.8876 70.578 19.8304L69.6952 20.3ZM71.1952 27.14H70.1952C70.1952 29.5223 69.8495 31.7125 69.1683 33.7184L70.1152 34.04L71.062 34.3616C71.8208 32.1275 72.1952 29.7177 72.1952 27.14H71.1952ZM70.1152 34.04L69.1702 33.7129C68.4888 35.6813 67.509 37.4114 66.2332 38.9123L66.9952 39.56L67.7571 40.2076C69.2013 38.5086 70.3015 36.5587 71.0601 34.3671L70.1152 34.04ZM66.9952 39.56L66.2414 38.9029C64.9731 40.3576 63.4656 41.4931 61.7112 42.3143L62.1352 43.22L62.5591 44.1257C64.5648 43.1869 66.2972 41.8824 67.7489 40.2171L66.9952 39.56ZM62.1352 43.22L61.7112 42.3143C59.9788 43.1252 58.026 43.54 55.8352 43.54V44.54V45.54C58.2843 45.54 60.5315 45.0748 62.5591 44.1257L62.1352 43.22ZM56.0152 40.64V41.64C58.4158 41.64 60.5071 40.9582 62.2273 39.5549L61.5952 38.78L60.963 38.0051C59.6432 39.0818 58.0145 39.64 56.0152 39.64V40.64ZM61.5952 38.78L62.2174 39.5628C63.9372 38.1958 65.1985 36.3763 66.0144 34.1432L65.0752 33.8L64.1359 33.4568C63.4318 35.3837 62.3731 36.8842 60.9729 37.9972L61.5952 38.78ZM65.0752 33.8L66.0085 34.159C66.8573 31.9522 67.2752 29.5489 67.2752 26.96H66.2752H65.2752C65.2752 29.3311 64.8931 31.4878 64.1418 33.441L65.0752 33.8ZM66.2752 26.96H67.2752C67.2752 23.9304 66.5387 21.4634 64.9016 19.7328L64.1752 20.42L63.4487 21.1072C64.6117 22.3366 65.2752 24.2296 65.2752 26.96H66.2752ZM64.1752 20.42L64.9115 19.7434C63.3192 18.0106 61.1047 17.2 58.4152 17.2V18.2V19.2C60.6857 19.2 62.3111 19.8694 63.4388 21.0966L64.1752 20.42ZM58.4152 18.2V17.2C56.0141 17.2 53.9084 17.8818 52.1529 19.2772L52.7752 20.06L53.3974 20.8428C54.7619 19.7582 56.4162 19.2 58.4152 19.2V18.2ZM52.7752 20.06L52.143 19.2851C50.4748 20.6461 49.2194 22.434 48.3642 24.6149L49.2952 24.98L50.2261 25.3451C50.9709 23.446 52.0355 21.9539 53.4073 20.8349L52.7752 20.06ZM49.2952 24.98L48.3642 24.6149C47.5116 26.789 47.0952 29.2157 47.0952 31.88H48.0952H49.0952C49.0952 29.4243 49.4787 27.251 50.2261 25.3451L49.2952 24.98ZM48.0952 31.88H47.0952C47.0952 34.8762 47.8347 37.3333 49.4596 39.0975L50.1952 38.42L50.9307 37.7425C49.7556 36.4667 49.0952 34.5638 49.0952 31.88H48.0952ZM50.1952 38.42L49.4687 39.1072C51.0976 40.8292 53.3245 41.64 56.0152 41.64V40.64V39.64C53.7458 39.64 52.0927 38.9708 50.9216 37.7328L50.1952 38.42ZM77.535 43.64L76.7128 44.2092L76.7271 44.2298L76.7424 44.2497L77.535 43.64ZM77.175 41.48L76.1874 41.3228L76.1852 41.3367L76.1834 41.3507L77.175 41.48ZM83.115 4.16L84.1026 4.31718L84.1038 4.30931L84.1049 4.30142L83.115 4.16ZM84.015 2.3L83.4053 1.50737L83.3898 1.51928L83.3748 1.53177L84.015 2.3ZM108.915 2.12L108.301 2.90935L108.321 2.9248L108.342 2.93923L108.915 2.12ZM108.855 5.18L108.148 4.47289L108.131 4.48972L108.115 4.50733L108.855 5.18ZM87.855 5.84V4.84H87.0045L86.868 5.6795L87.855 5.84ZM85.455 20.6L84.468 20.4395L84.2793 21.6H85.455V20.6ZM104.715 21.02L104.101 21.8094L104.121 21.8248L104.142 21.8392L104.715 21.02ZM104.655 24.08L103.948 23.3729V23.3729L104.655 24.08ZM84.855 24.74V23.74H84.003L83.8677 24.5812L84.855 24.74ZM82.095 41.9L83.0814 42.0644L83.0823 42.0588L82.095 41.9ZM79.515 44.42V43.42C78.7731 43.42 78.4701 43.2155 78.3276 43.0303L77.535 43.64L76.7424 44.2497C77.3999 45.1045 78.4169 45.42 79.515 45.42V44.42ZM77.535 43.64L78.3572 43.0708C78.1918 42.8319 78.064 42.3963 78.1666 41.6093L77.175 41.48L76.1834 41.3507C76.046 42.4037 76.1582 43.4081 76.7128 44.2092L77.535 43.64ZM77.175 41.48L78.1626 41.6372L84.1026 4.31718L83.115 4.16L82.1274 4.00281L76.1874 41.3228L77.175 41.48ZM83.115 4.16L84.1049 4.30142C84.2026 3.61776 84.4244 3.26051 84.6552 3.06822L84.015 2.3L83.3748 1.53177C82.6456 2.13948 82.2674 3.02223 82.1251 4.01858L83.115 4.16ZM84.015 2.3L84.6247 3.09262C84.9342 2.85452 85.3659 2.7 85.995 2.7V1.7V0.699997C85.0241 0.699997 84.1358 0.945473 83.4053 1.50737L84.015 2.3ZM85.995 1.7V2.7H107.295V1.7V0.699997H85.995V1.7ZM107.295 1.7V2.7C107.913 2.7 108.192 2.82487 108.301 2.90935L108.915 2.12L109.529 1.33065C108.918 0.855124 108.117 0.699997 107.295 0.699997V1.7ZM108.915 2.12L108.342 2.93923C108.432 3.00245 108.515 3.09095 108.515 3.38H109.515H110.515C110.515 2.54904 110.198 1.79754 109.488 1.30077L108.915 2.12ZM109.515 3.38H108.515C108.515 3.93727 108.36 4.26042 108.148 4.47289L108.855 5.18L109.562 5.88711C110.23 5.21958 110.515 4.34273 110.515 3.38H109.515ZM108.855 5.18L108.115 4.50733C107.964 4.67389 107.675 4.84 107.055 4.84V5.84V6.84C108.035 6.84 108.946 6.56611 109.595 5.85267L108.855 5.18ZM107.055 5.84V4.84H87.855V5.84V6.84H107.055V5.84ZM87.855 5.84L86.868 5.6795L84.468 20.4395L85.455 20.6L86.442 20.7605L88.842 6.00049L87.855 5.84ZM85.455 20.6V21.6H103.095V20.6V19.6H85.455V20.6ZM103.095 20.6V21.6C103.713 21.6 103.992 21.7249 104.101 21.8094L104.715 21.02L105.329 20.2306C104.718 19.7551 103.917 19.6 103.095 19.6V20.6ZM104.715 21.02L104.142 21.8392C104.232 21.9025 104.315 21.991 104.315 22.28H105.315H106.315C106.315 21.449 105.998 20.6975 105.288 20.2008L104.715 21.02ZM105.315 22.28H104.315C104.315 22.8373 104.16 23.1604 103.948 23.3729L104.655 24.08L105.362 24.7871C106.03 24.1196 106.315 23.2427 106.315 22.28H105.315ZM104.655 24.08L103.948 23.3729C103.735 23.5854 103.412 23.74 102.855 23.74V24.74V25.74C103.818 25.74 104.695 25.4546 105.362 24.7871L104.655 24.08ZM102.855 24.74V23.74H84.855V24.74V25.74H102.855V24.74ZM84.855 24.74L83.8677 24.5812L81.1077 41.7412L82.095 41.9L83.0823 42.0588L85.8423 24.8988L84.855 24.74ZM82.095 41.9L81.1086 41.7356C80.9894 42.4507 80.7677 42.8535 80.5413 43.0746C80.3341 43.277 80.029 43.42 79.515 43.42V44.42V45.42C80.441 45.42 81.2859 45.1431 81.9387 44.5054C82.5723 43.8865 82.9206 43.0293 83.0814 42.0644L82.095 41.9ZM110.739 43.7L109.888 44.2241L109.912 44.2632L109.939 44.3L110.739 43.7ZM110.439 41.54L109.452 41.3818L109.45 41.3962L109.448 41.4107L110.439 41.54ZM114.399 16.82L115.387 16.9782L115.388 16.9683L114.399 16.82ZM115.239 15.02L114.599 14.2518L114.583 14.2656L114.567 14.2801L115.239 15.02ZM118.839 15.14L119.639 14.54V14.54L118.839 15.14ZM119.139 17.24L118.154 17.0687L118.153 17.0766L118.152 17.0845L119.139 17.24ZM115.239 42.02L114.252 41.8645L114.25 41.8717L115.239 42.02ZM114.339 43.82L113.699 43.0518L113.683 43.0656L113.667 43.0801L114.339 43.82ZM116.199 7.1L115.492 7.80711V7.80711L116.199 7.1ZM115.599 5.12L116.595 5.21481L116.598 5.18667L116.599 5.15843L115.599 5.12ZM116.619 2.72L115.984 1.94807L115.972 1.95757L115.961 1.96742L116.619 2.72ZM121.419 2.6L120.712 3.3071L120.728 3.32247L120.744 3.33715L121.419 2.6ZM122.019 4.58L121.023 4.48946L121.022 4.5033L122.019 4.58ZM112.419 44.42V43.42C111.881 43.42 111.661 43.2623 111.539 43.1L110.739 43.7L109.939 44.3C110.538 45.0977 111.437 45.42 112.419 45.42V44.42ZM110.739 43.7L111.591 43.1759C111.44 42.93 111.326 42.4747 111.431 41.6693L110.439 41.54L109.448 41.4107C109.313 42.4453 109.399 43.43 109.888 44.2241L110.739 43.7ZM110.439 41.54L111.427 41.6982L115.387 16.9782L114.399 16.82L113.412 16.6618L109.452 41.3818L110.439 41.54ZM114.399 16.82L115.388 16.9683C115.486 16.3143 115.695 15.9573 115.912 15.7599L115.239 15.02L114.567 14.2801C113.904 14.8827 113.552 15.7257 113.41 16.6717L114.399 16.82ZM115.239 15.02L115.88 15.7882C116.134 15.5759 116.526 15.42 117.159 15.42V14.42V13.42C116.192 13.42 115.304 13.6641 114.599 14.2518L115.239 15.02ZM117.159 14.42V15.42C117.697 15.42 117.918 15.5777 118.039 15.74L118.839 15.14L119.639 14.54C119.041 13.7423 118.141 13.42 117.159 13.42V14.42ZM118.839 15.14L118.039 15.74C118.161 15.9024 118.293 16.2718 118.154 17.0687L119.139 17.24L120.125 17.4113C120.306 16.3682 120.238 15.3376 119.639 14.54L118.839 15.14ZM119.139 17.24L118.152 17.0845L114.252 41.8645L115.239 42.02L116.227 42.1755L120.127 17.3955L119.139 17.24ZM115.239 42.02L114.25 41.8717C114.156 42.5026 113.941 42.8504 113.699 43.0518L114.339 43.82L114.98 44.5882C115.698 43.9896 116.083 43.1374 116.228 42.1683L115.239 42.02ZM114.339 43.82L113.667 43.0801C113.475 43.2547 113.113 43.42 112.419 43.42V44.42V45.42C113.406 45.42 114.324 45.1853 115.012 44.5599L114.339 43.82ZM118.359 7.82V6.82C117.554 6.82 117.133 6.61921 116.906 6.39289L116.199 7.1L115.492 7.80711C116.226 8.54078 117.245 8.82 118.359 8.82V7.82ZM116.199 7.1L116.906 6.39289C116.688 6.17405 116.536 5.83669 116.595 5.21481L115.599 5.12L114.604 5.02519C114.503 6.0833 114.751 7.06595 115.492 7.80711L116.199 7.1ZM115.599 5.12L116.599 5.15843C116.631 4.3272 116.89 3.81217 117.278 3.47258L116.619 2.72L115.961 1.96742C115.069 2.74783 114.648 3.8328 114.6 5.08157L115.599 5.12ZM116.619 2.72L117.255 3.49193C117.718 3.11049 118.357 2.88 119.259 2.88V1.88V0.879999C118.002 0.879999 116.88 1.20951 115.984 1.94807L116.619 2.72ZM119.259 1.88V2.88C120.065 2.88 120.486 3.08079 120.712 3.3071L121.419 2.6L122.126 1.89289C121.393 1.15921 120.374 0.879999 119.259 0.879999V1.88ZM121.419 2.6L120.744 3.33715C120.918 3.49681 121.086 3.801 121.023 4.48946L122.019 4.58L123.015 4.67053C123.113 3.599 122.881 2.58319 122.095 1.86284L121.419 2.6ZM122.019 4.58L121.022 4.5033C120.958 5.34501 120.681 5.8771 120.281 6.22742L120.939 6.98L121.598 7.73257C122.478 6.9629 122.921 5.89498 123.016 4.6567L122.019 4.58ZM120.939 6.98L120.281 6.22742C119.868 6.58853 119.265 6.82 118.359 6.82V7.82V8.82C119.614 8.82 120.731 8.49146 121.598 7.73257L120.939 6.98ZM122.945 43.94L122.238 44.6471L122.258 44.6679L122.28 44.6874L122.945 43.94ZM123.065 41.18L123.772 41.8871L123.78 41.8789L123.788 41.8706L123.065 41.18ZM135.725 27.92L136.724 27.9463L136.793 25.3534L135.001 27.2294L135.725 27.92ZM135.665 30.2L134.824 30.7414L136.579 33.4672L136.664 30.2263L135.665 30.2ZM127.745 17.9L126.883 18.407L126.893 18.4244L126.904 18.4414L127.745 17.9ZM127.205 16.1L126.216 15.9479L126.211 15.9855L126.208 16.0233L127.205 16.1ZM127.925 14.9L128.498 15.7192L128.524 15.7009L128.549 15.6809L127.925 14.9ZM130.685 14.78L130.17 15.6375L130.188 15.6481L130.206 15.6579L130.685 14.78ZM131.885 15.98L132.729 15.444L132.726 15.4392L131.885 15.98ZM138.665 26.66V27.66H140.484L139.509 26.124L138.665 26.66ZM137.345 26.66L136.61 25.9817L135.061 27.66H137.345V26.66ZM147.425 15.74L148.16 16.4183L148.162 16.4157L147.425 15.74ZM148.625 14.72L148.139 13.8458L148.139 13.8458L148.625 14.72ZM151.625 14.96L150.918 15.6671L150.938 15.6879L150.96 15.7074L151.625 14.96ZM152.105 16.16L151.108 16.077L151.105 16.1184V16.16H152.105ZM151.505 17.6L152.232 18.2858L152.253 18.2636L152.273 18.2402L151.505 17.6ZM139.745 30.08L138.745 30.107L138.811 32.5295L140.472 30.7658L139.745 30.08ZM139.685 27.86L140.523 27.3151L138.589 24.3386L138.685 27.887L139.685 27.86ZM148.145 40.88L147.306 41.4249L147.324 41.4531L147.345 41.48L148.145 40.88ZM148.685 42.68L147.707 42.4705L147.701 42.4991L147.696 42.5279L148.685 42.68ZM147.965 43.94L148.589 44.7209L147.965 43.94ZM145.145 44L145.682 43.1563L145.145 44ZM144.005 42.86L143.161 43.3963L143.167 43.4056L143.173 43.4147L144.005 42.86ZM136.685 31.34L136.764 30.3432L134.765 30.1832L135.841 31.8763L136.685 31.34ZM138.185 31.46L138.908 32.1501L140.357 30.6306L138.264 30.4632L138.185 31.46ZM127.085 43.1L127.792 43.8071L127.8 43.7987L127.808 43.7901L127.085 43.1ZM125.885 44.06L125.399 43.1858L125.364 43.2055L125.33 43.228L125.885 44.06ZM124.505 44.42V43.42C123.969 43.42 123.723 43.2937 123.609 43.1926L122.945 43.94L122.28 44.6874C122.887 45.2263 123.68 45.42 124.505 45.42V44.42ZM122.945 43.94L123.652 43.2329C123.484 43.0649 123.405 42.8811 123.405 42.62H122.405H121.405C121.405 43.3989 121.686 44.0951 122.238 44.6471L122.945 43.94ZM122.405 42.62H123.405C123.405 42.4163 123.48 42.1791 123.772 41.8871L123.065 41.18L122.358 40.4729C121.77 41.0609 121.405 41.7837 121.405 42.62H122.405ZM123.065 41.18L123.788 41.8706L136.448 28.6106L135.725 27.92L135.001 27.2294L122.341 40.4894L123.065 41.18ZM135.725 27.92L134.725 27.8937L134.665 30.1737L135.665 30.2L136.664 30.2263L136.724 27.9463L135.725 27.92ZM135.665 30.2L136.505 29.6586L128.585 17.3586L127.745 17.9L126.904 18.4414L134.824 30.7414L135.665 30.2ZM127.745 17.9L128.607 17.393C128.26 16.8043 128.184 16.4129 128.202 16.1767L127.205 16.1L126.208 16.0233C126.146 16.8271 126.429 17.6357 126.883 18.407L127.745 17.9ZM127.205 16.1L128.193 16.2521C128.235 15.9785 128.34 15.8298 128.498 15.7192L127.925 14.9L127.351 14.0808C126.709 14.5302 126.334 15.1815 126.216 15.9479L127.205 16.1ZM127.925 14.9L128.549 15.6809C128.769 15.505 129.008 15.42 129.305 15.42V14.42V13.42C128.561 13.42 127.88 13.655 127.3 14.1191L127.925 14.9ZM129.305 14.42V15.42C129.665 15.42 129.943 15.5011 130.17 15.6375L130.685 14.78L131.199 13.9225C130.626 13.5788 129.985 13.42 129.305 13.42V14.42ZM130.685 14.78L130.206 15.6579C130.458 15.7956 130.745 16.0571 131.044 16.5208L131.885 15.98L132.726 15.4392C132.304 14.7829 131.791 14.2444 131.164 13.9021L130.685 14.78ZM131.885 15.98L131.04 16.516L137.82 27.196L138.665 26.66L139.509 26.124L132.729 15.444L131.885 15.98ZM138.665 26.66V25.66H137.345V26.66V27.66H138.665V26.66ZM137.345 26.66L138.079 27.3383L148.159 16.4183L147.425 15.74L146.69 15.0617L136.61 25.9817L137.345 26.66ZM147.425 15.74L148.162 16.4157C148.566 15.9745 148.883 15.7207 149.11 15.5942L148.625 14.72L148.139 13.8458C147.647 14.1193 147.163 14.5455 146.688 15.0643L147.425 15.74ZM148.625 14.72L149.11 15.5942C149.269 15.5059 149.562 15.42 150.065 15.42V14.42V13.42C149.367 13.42 148.7 13.5341 148.139 13.8458L148.625 14.72ZM150.065 14.42V15.42C150.571 15.42 150.801 15.5509 150.918 15.6671L151.625 14.96L152.332 14.2529C151.728 13.6491 150.918 13.42 150.065 13.42V14.42ZM151.625 14.96L150.96 15.7074C151.085 15.8183 151.122 15.9106 151.108 16.077L152.105 16.16L153.101 16.243C153.167 15.4494 152.884 14.7417 152.289 14.2126L151.625 14.96ZM152.105 16.16H151.105C151.105 16.3432 151.033 16.6045 150.736 16.9598L151.505 17.6L152.273 18.2402C152.777 17.6355 153.105 16.9368 153.105 16.16H152.105ZM151.505 17.6L150.777 16.9142L139.017 29.3942L139.745 30.08L140.472 30.7658L152.232 18.2858L151.505 17.6ZM139.745 30.08L140.744 30.053L140.684 27.833L139.685 27.86L138.685 27.887L138.745 30.107L139.745 30.08ZM139.685 27.86L138.846 28.4049L147.306 41.4249L148.145 40.88L148.983 40.3351L140.523 27.3151L139.685 27.86ZM148.145 40.88L147.345 41.48C147.723 41.984 147.745 42.2921 147.707 42.4705L148.685 42.68L149.662 42.8895C149.864 41.9479 149.527 41.056 148.945 40.28L148.145 40.88ZM148.685 42.68L147.696 42.5279C147.653 42.8076 147.538 43.0004 147.34 43.1591L147.965 43.94L148.589 44.7209C149.191 44.2396 149.556 43.5924 149.673 42.8321L148.685 42.68ZM147.965 43.94L147.34 43.1591C147.12 43.335 146.881 43.42 146.585 43.42V44.42V45.42C147.328 45.42 148.009 45.185 148.589 44.7209L147.965 43.94ZM146.585 44.42V43.42C146.255 43.42 145.962 43.3346 145.682 43.1563L145.145 44L144.608 44.8437C145.208 45.2254 145.874 45.42 146.585 45.42V44.42ZM145.145 44L145.682 43.1563C145.371 42.9587 145.088 42.6819 144.837 42.3053L144.005 42.86L143.173 43.4147C143.562 43.9981 144.038 44.4813 144.608 44.8437L145.145 44ZM144.005 42.86L144.849 42.3237L137.529 30.8037L136.685 31.34L135.841 31.8763L143.161 43.3963L144.005 42.86ZM136.685 31.34L136.605 32.3368L138.105 32.4568L138.185 31.46L138.264 30.4632L136.764 30.3432L136.685 31.34ZM138.185 31.46L137.461 30.7699L126.361 42.4099L127.085 43.1L127.808 43.7901L138.908 32.1501L138.185 31.46ZM127.085 43.1L126.378 42.3929C125.973 42.7971 125.648 43.0477 125.399 43.1858L125.885 44.06L126.37 44.9342C126.842 44.6723 127.316 44.2829 127.792 43.8071L127.085 43.1ZM125.885 44.06L125.33 43.228C125.176 43.3304 124.925 43.42 124.505 43.42V44.42V45.42C125.205 45.42 125.873 45.2696 126.439 44.8921L125.885 44.06Z" fill="#375D84" mask="url(#path-1-outside-1_220_2526)"/>
</svg>
